<?xml version="1.0" standalone="no"?><!DOCTYPE svg PUBLIC "-//W3C//DTD SVG 1.1//EN" "http://www.w3.org/Graphics/SVG/1.1/DTD/svg11.dtd"><svg t="1624943086207" class="icon" viewBox="0 0 1024 1024" version="1.1" xmlns="http://www.w3.org/2000/svg" p-id="3768" xmlns:xlink="http://www.w3.org/1999/xlink" width="200" height="200"><defs><style type="text/css"></style></defs><path d="M512.288 96.128c214.688 80.512 344.96 337.824 233.376 546.336l-272.352-273.6 103.968-104.32-65.024-64.704c-35.872 35.136-92.896 42.624-131.36 27.136l-207.008 207.104 117.248 116.8 78.144-77.856 272.256 273.152c-133.248 73.184-317.92 50.112-454.208-91.456L121.28 720.512c19.776 27.392 36.352 52.224 56.96 73.056-1.824 2.176-7.456 6.816-7.584 6.944-3.456-0.576-7.552-1.92-11.2-1.92-35.136 0-63.488 30.56-63.488 65.696C96 899.392 124.64 928 159.744 928c35.136 0 65.184-28.864 65.184-64 0-4.096-0.928-7.84-1.6-11.68l10.112-9.984c156.704 105.696 328.448 118.848 513.216 8.288l76.32 76.576 104.448-103.04-76.8-77.6C1071.04 414.432 777.152 88.192 512.32 96.128z" fill="#B19C4A" p-id="3769"></path></svg>